<svg width="54" height="54" viewBox="0 0 54 54" fill="none" xmlns="http://www.w3.org/2000/svg">
<path d="M27 37.9688C31.6599 37.9688 35.4375 34.1912 35.4375 29.5312C35.4375 24.8713 31.6599 21.0938 27 21.0938C22.3401 21.0938 18.5625 24.8713 18.5625 29.5312C18.5625 34.1912 22.3401 37.9688 27 37.9688Z" stroke="white" stroke-width="3" stroke-linecap="round" stroke-linejoin="round"/>
<path d="M41.3438 24.4688C43.3091 24.4655 45.2481 24.9215 47.006 25.8005C48.7639 26.6794 50.2921 27.957 51.4688 29.5313" stroke="white" stroke-width="3" stroke-linecap="round" stroke-linejoin="round"/>
<path d="M2.53125 29.5313C3.70786 27.957 5.23606 26.6794 6.99397 25.8005C8.75188 24.9215 10.6909 24.4655 12.6562 24.4688" stroke="white" stroke-width="3" stroke-linecap="round" stroke-linejoin="round"/>
<path d="M14.8496 45.563C15.9609 43.2871 17.689 41.3692 19.8371 40.0275C21.9852 38.6859 24.467 37.9746 26.9996 37.9746C29.5323 37.9746 32.014 38.6859 34.1621 40.0275C36.3102 41.3692 38.0383 43.2871 39.1496 45.563" stroke="white" stroke-width="3" stroke-linecap="round" stroke-linejoin="round"/>
<path d="M12.6563 24.4687C11.3751 24.47 10.1201 24.1067 9.03773 23.4212C7.95541 22.7357 7.09051 21.7564 6.54411 20.5976C5.99771 19.4388 5.79236 18.1485 5.95207 16.8773C6.11178 15.6061 6.62994 14.4067 7.44601 13.4191C8.26208 12.4315 9.34236 11.6965 10.5606 11.3001C11.7789 10.9036 13.0848 10.8621 14.3258 11.1802C15.5668 11.4984 16.6917 12.1632 17.5689 13.0969C18.4461 14.0306 19.0395 15.1947 19.2797 16.4531" stroke="white" stroke-width="3" stroke-linecap="round" stroke-linejoin="round"/>
<path d="M34.7207 16.4531C34.9609 15.1947 35.5543 14.0306 36.4315 13.0969C37.3087 12.1632 38.4336 11.4984 39.6746 11.1802C40.9156 10.8621 42.2215 10.9036 43.4398 11.3001C44.658 11.6965 45.7383 12.4315 46.5544 13.4191C47.3705 14.4067 47.8886 15.6061 48.0483 16.8773C48.208 18.1485 48.0027 19.4388 47.4563 20.5976C46.9099 21.7564 46.045 22.7357 44.9627 23.4212C43.8803 24.1067 42.6253 24.47 41.3441 24.4687" stroke="white" stroke-width="3" stroke-linecap="round" stroke-linejoin="round"/>
</svg>
