<svg width="129" height="242" viewBox="0 0 129 242" fill="none" xmlns="http://www.w3.org/2000/svg">
<path d="M98 36L98 234" stroke="black" stroke-width="3" stroke-linecap="round"/>
<mask id="mask0_901_2151" style="mask-type:alpha" maskUnits="userSpaceOnUse" x="16" y="44" width="121" height="142">
<path d="M66.4 185.6C50.6667 185.6 38.4 180.8 29.6 171.2C21.0667 162.133 16.8 149.6 16.8 133.6C16.8 114.4 22.5333 97.5333 34 83C24.6667 76.0667 20 68.5333 20 60.4C20 49.8667 26.6 44.6 39.8 44.6C47.6667 44.6 55.2667 46.8667 62.6 51.4C63.1333 51.5333 63.4 52.0667 63.4 53C63.4 53.2667 63.2667 53.4 63 53.4C62.8667 53.4 62.4667 53.2 61.8 52.8C55 49.2 48.6 47.4 42.6 47.4C30.0667 47.4 23.8 52.3333 23.8 62.2C23.8 68.8667 27.7333 75.2 35.6 81.2C49.4667 64.9333 69.9333 56.8 97 56.8C106.067 56.8 113.933 58.0667 120.6 60.6C129.667 63.9333 134.933 69.2667 136.4 76.6C136.533 76.8667 136.6 77.4 136.6 78.2C136.6 83.2667 133.4 87.8 127 91.8C131.133 98.8667 133.2 107.533 133.2 117.8C133.2 129.533 130.467 140.133 125 149.6C118.6 160.4 110.4 169 100.4 175.4C89.6 182.2 78.2667 185.6 66.4 185.6ZM86.2 97.2C100.067 97.2 111.667 94.8667 121 90.2C117.667 83.4 112.933 80 106.8 80C106.533 80 106.2 80.0667 105.8 80.2C105.4 80.2 104.933 80.2667 104.4 80.4C103.867 80.5333 103.4 80.6 103 80.6C102.6 80.6 102.267 80.6 102 80.6C100.533 80.6 99.8 80.2 99.8 79.4C99.8 78.2 101.467 77.6 104.8 77.6C112.8 77.6 119.4 81.0667 124.6 88C129.4 84.8 131.8 81.2667 131.8 77.4C131.8 65.2667 120.867 59.2 99 59.2C77.1333 59.2 59.2667 68.6 45.4 87.4C51.6667 90.6 58.2 93.0667 65 94.8C71.8 96.4 78.8667 97.2 86.2 97.2ZM69.8 182.6C79.5333 182.6 89.4 178.333 99.4 169.8C107.8 162.6 114.6 153.867 119.8 143.6C123.8 135.6 125.8 125.8 125.8 114.2C125.8 106.467 124.8 99.8 122.8 94.2C118.667 95.9333 113.933 97.3333 108.6 98.4C103.4 99.3333 97.6667 99.8 91.4 99.8C73.6667 99.8 57.8667 96.2667 44 89.2C34.2667 102.933 29.4 118.533 29.4 136C29.4 148.533 32.3333 158.867 38.2 167C44.4667 175.667 53.7333 180.8 66 182.4C66.5333 182.4 67.1333 182.4 67.8 182.4C68.4667 182.533 69.1333 182.6 69.8 182.6Z" fill="black"/>
</mask>
<g mask="url(#mask0_901_2151)">
<rect width="116" height="266" transform="matrix(-1 0 0 1 96 6)" fill="#272727"/>
</g>
</svg>
